<svg width="47" height="48" viewBox="0 0 47 48" fill="none" xmlns="http://www.w3.org/2000/svg">
<g clip-path="url(#clip0_71_32)">
<path d="M19.0155 22.4989C18.6467 22.1316 18.1465 21.9252 17.625 21.9252C17.1035 21.9252 16.6034 22.1316 16.2346 22.4989C15.8659 22.8662 15.6587 23.3644 15.6587 23.8838C15.6587 24.4033 15.8659 24.9014 16.2346 25.2688L22.1096 31.1206C22.2926 31.3014 22.5096 31.4444 22.7482 31.5415C22.9868 31.6386 23.2423 31.6878 23.5 31.6863C23.7681 31.6778 24.0316 31.6146 24.2742 31.5005C24.5167 31.3864 24.7331 31.2239 24.91 31.0231L38.6184 15.4181C38.9349 15.0267 39.0875 14.5286 39.0444 14.0279C39.0013 13.5271 38.7658 13.0622 38.387 12.7302C38.0081 12.3981 37.5153 12.2245 37.0111 12.2456C36.507 12.2667 36.0304 12.4808 35.6809 12.8433L23.5 26.8878L19.0155 22.4989Z" fill="#231F20"/>
<path d="M41.1249 21.9332C40.6055 21.9332 40.1074 22.1387 39.7402 22.5045C39.3729 22.8703 39.1666 23.3665 39.1666 23.8838C39.1666 28.0225 37.516 31.9917 34.5779 34.9182C31.6399 37.8447 27.655 39.4888 23.4999 39.4888C20.4059 39.4874 17.3816 38.5735 14.8084 36.8623C12.2351 35.1512 10.2281 32.7194 9.04053 29.8737C7.85291 27.028 7.53783 23.8957 8.13501 20.8718C8.73219 17.848 10.2149 15.0679 12.3962 12.8823C13.8467 11.4181 15.5759 10.2568 17.4825 9.46638C19.3891 8.67593 21.4348 8.2722 23.4999 8.27881C24.7522 8.28662 25.9998 8.43052 27.2208 8.70795C27.4762 8.78666 27.7452 8.81242 28.0111 8.78363C28.277 8.75484 28.5341 8.67211 28.7667 8.54054C28.9992 8.40897 29.2022 8.23136 29.3632 8.01864C29.5242 7.80592 29.6397 7.56262 29.7027 7.30372C29.7657 7.04482 29.7747 6.77582 29.7293 6.5133C29.6839 6.25078 29.585 6.0003 29.4387 5.77731C29.2924 5.55432 29.1018 5.36355 28.8787 5.21674C28.6555 5.06994 28.4045 4.97022 28.1412 4.92374C26.6198 4.56725 25.0628 4.38402 23.4999 4.37756C19.6309 4.39758 15.8546 5.55871 12.6474 7.7144C9.44027 9.8701 6.94607 12.9238 5.47957 16.49C4.01307 20.0563 3.63999 23.9753 4.40741 27.7526C5.17484 31.5298 7.04837 34.996 9.79158 37.7137C13.4276 41.3371 18.3567 43.3781 23.4999 43.39C28.6937 43.39 33.6748 41.3349 37.3474 37.6768C41.02 34.0187 43.0833 29.0572 43.0833 23.8838C43.0833 23.3665 42.8769 22.8703 42.5097 22.5045C42.1424 22.1387 41.6443 21.9332 41.1249 21.9332Z" fill="#231F20"/>
</g>
<defs>
<clipPath id="clip0_71_32">
<rect width="47" height="46.815" fill="white" transform="translate(0 0.476318)"/>
</clipPath>
</defs>
</svg>
