<svg width="34" height="29" viewBox="0 0 34 29" fill="none" xmlns="http://www.w3.org/2000/svg">
<path d="M22.05 14.5809C22.05 15.748 21.4969 16.8674 20.5123 17.6927C19.5277 18.518 18.1924 18.9816 16.8 18.9816C15.4076 18.9816 14.0723 18.518 13.0877 17.6927C12.1031 16.8674 11.55 15.748 11.55 14.5809C11.55 14.33 11.5815 14.0851 11.6357 13.8474H9.8V19.7107C9.8 20.1185 10.1937 20.4485 10.6802 20.4485H22.9215C23.1547 20.4481 23.3781 20.3702 23.5428 20.2319C23.7075 20.0936 23.8 19.9061 23.8 19.7107V13.8474H21.9643C22.0185 14.0851 22.05 14.33 22.05 14.5809ZM16.8 17.5147C17.2597 17.5146 17.715 17.4386 18.1397 17.2911C18.5644 17.1435 18.9502 16.9272 19.2752 16.6547C19.6002 16.3821 19.858 16.0586 20.0338 15.7025C20.2097 15.3464 20.3001 14.9648 20.3 14.5794C20.2999 14.1941 20.2092 13.8125 20.0332 13.4565C19.8571 13.1005 19.5992 12.777 19.274 12.5046C18.9488 12.2322 18.5628 12.0161 18.138 11.8687C17.7133 11.7213 17.258 11.6455 16.7983 11.6456C15.8698 11.6458 14.9794 11.9552 14.323 12.5056C13.6666 13.0561 13.298 13.8026 13.2983 14.5809C13.2985 15.3592 13.6675 16.1055 14.3243 16.6557C14.981 17.2059 15.8715 17.5149 16.8 17.5147ZM21 11.5004H23.0983C23.2376 11.5004 23.3714 11.4541 23.4701 11.3716C23.5688 11.2891 23.6245 11.1771 23.625 11.0603V9.30147C23.625 9.18437 23.5695 9.07206 23.4707 8.98926C23.3719 8.90645 23.238 8.85993 23.0983 8.85993H21C20.8603 8.85993 20.7263 8.90645 20.6275 8.98926C20.5287 9.07206 20.4733 9.18437 20.4733 9.30147V11.0603C20.475 11.3023 20.7113 11.5004 21 11.5004ZM16.8 0.498535C12.3444 0.498535 8.07122 1.98221 4.92061 4.62316C1.76999 7.26411 0 10.846 0 14.5809C0 18.3158 1.76999 21.8977 4.92061 24.5386C8.07122 27.1796 12.3444 28.6632 16.8 28.6632C19.0062 28.6632 21.1908 28.299 23.2291 27.5913C25.2674 26.8836 27.1194 25.8463 28.6794 24.5386C30.2394 23.231 31.4769 21.6785 32.3212 19.97C33.1655 18.2614 33.6 16.4302 33.6 14.5809C33.6 12.7316 33.1655 10.9004 32.3212 9.19181C31.4769 7.48326 30.2394 5.93083 28.6794 4.62316C27.1194 3.31549 25.2674 2.2782 23.2291 1.57049C21.1908 0.862786 19.0062 0.498535 16.8 0.498535ZM25.55 20.2857C25.55 21.182 24.675 21.9154 23.6058 21.9154H9.99425C8.925 21.9154 8.05 21.182 8.05 20.2857V8.87607C8.05 7.97979 8.925 7.24633 9.99425 7.24633H23.6058C24.675 7.24633 25.55 7.97979 25.55 8.87607V20.2857Z" fill="#00B876"/>
</svg>
