<svg width="82" height="32" viewBox="0 0 82 32" fill="none" xmlns="http://www.w3.org/2000/svg">
<path d="M7.62398 18.492H18.928V24H0.279985V0.239999H7.62398V18.492ZM30.4691 5.64C32.4371 5.64 34.1531 6.012 35.6171 6.756C37.0811 7.476 38.2211 8.532 39.0371 9.924C39.8531 11.316 40.2611 13.008 40.2611 15C40.2611 16.968 39.8531 18.66 39.0371 20.076C38.2211 21.468 37.0811 22.536 35.6171 23.28C34.1531 24 32.4371 24.36 30.4691 24.36C28.5491 24.36 26.8451 24 25.3571 23.28C23.8931 22.536 22.7411 21.468 21.9011 20.076C21.0851 18.66 20.6771 16.968 20.6771 15C20.6771 13.008 21.0851 11.316 21.9011 9.924C22.7411 8.532 23.8931 7.476 25.3571 6.756C26.8451 6.012 28.5491 5.64 30.4691 5.64ZM30.4691 10.644C29.9411 10.644 29.4851 10.776 29.1011 11.04C28.7411 11.304 28.4651 11.76 28.2731 12.408C28.0811 13.056 27.9851 13.92 27.9851 15C27.9851 16.08 28.0811 16.944 28.2731 17.592C28.4651 18.216 28.7411 18.672 29.1011 18.96C29.4851 19.224 29.9411 19.356 30.4691 19.356C31.0211 19.356 31.4771 19.224 31.8371 18.96C32.1971 18.672 32.4731 18.216 32.6651 17.592C32.8571 16.944 32.9531 16.08 32.9531 15C32.9531 13.92 32.8571 13.056 32.6651 12.408C32.4731 11.76 32.1971 11.304 31.8371 11.04C31.4771 10.776 31.0211 10.644 30.4691 10.644ZM60.8843 0.635998L61.3883 5.28C61.1723 5.232 60.9803 5.208 60.8123 5.208C60.6443 5.184 60.4763 5.172 60.3083 5.172C59.2763 5.172 58.5203 5.436 58.0403 5.964C57.5603 6.468 57.3203 7.068 57.3203 7.764L55.0523 7.008C55.0523 6 55.2203 5.004 55.5563 4.02C55.8923 3.036 56.4323 2.22 57.1763 1.572C57.9443 0.923999 58.9523 0.599999 60.2003 0.599999C60.2963 0.599999 60.4043 0.599999 60.5243 0.599999C60.6443 0.599999 60.7643 0.611999 60.8843 0.635998ZM54.4763 19.428C56.7083 19.428 58.4003 19.884 59.5523 20.796C60.7283 21.684 61.3163 23.016 61.3163 24.792C61.3163 26.376 60.8963 27.684 60.0563 28.716C59.2403 29.748 58.0643 30.504 56.5283 30.984C54.9923 31.488 53.1443 31.74 50.9843 31.74C47.5763 31.74 45.1403 31.356 43.6763 30.588C42.2363 29.82 41.5163 28.728 41.5163 27.312C41.5163 26.304 41.9603 25.5 42.8483 24.9C43.7363 24.324 45.1883 24.024 47.2043 24L47.0963 24.612C45.3923 24.42 44.1443 23.964 43.3523 23.244C42.5843 22.5 42.2003 21.528 42.2003 20.328C42.2003 19.104 42.6923 18.132 43.6763 17.412C44.6603 16.692 45.9203 16.308 47.4563 16.26L49.8323 17.34H49.1843C48.3203 17.364 47.7203 17.472 47.3843 17.664C47.0483 17.856 46.8803 18.108 46.8803 18.42C46.8803 18.756 47.0123 19.008 47.2763 19.176C47.5643 19.344 48.0083 19.428 48.6083 19.428H54.4763ZM51.0563 27.204C52.1363 27.204 53.0243 27.144 53.7203 27.024C54.4403 26.928 54.9683 26.772 55.3043 26.556C55.6643 26.34 55.8443 26.088 55.8443 25.8C55.8443 25.56 55.7603 25.368 55.5923 25.224C55.4243 25.104 55.1003 25.044 54.6203 25.044H47.8883C47.5523 25.044 47.2883 25.128 47.0963 25.296C46.9043 25.464 46.8083 25.68 46.8083 25.944C46.8083 26.352 47.1803 26.664 47.9243 26.88C48.6923 27.096 49.7363 27.204 51.0563 27.204ZM51.4163 5.64C53.4083 5.64 55.0763 5.88 56.4203 6.36C57.7883 6.816 58.8203 7.5 59.5163 8.412C60.2363 9.3 60.5963 10.428 60.5963 11.796C60.5963 13.116 60.2363 14.232 59.5163 15.144C58.8203 16.056 57.7883 16.74 56.4203 17.196C55.0763 17.652 53.4083 17.88 51.4163 17.88C48.4163 17.88 46.1363 17.364 44.5763 16.332C43.0403 15.3 42.2723 13.788 42.2723 11.796C42.2723 10.428 42.6203 9.3 43.3163 8.412C44.0123 7.5 45.0443 6.816 46.4123 6.36C47.7803 5.88 49.4483 5.64 51.4163 5.64ZM51.4163 9.564C50.7923 9.564 50.2883 9.744 49.9043 10.104C49.5443 10.464 49.3643 11.016 49.3643 11.76C49.3643 12.48 49.5443 13.032 49.9043 13.416C50.2883 13.776 50.7923 13.956 51.4163 13.956C52.0403 13.956 52.5323 13.776 52.8923 13.416C53.2763 13.032 53.4683 12.48 53.4683 11.76C53.4683 11.016 53.2763 10.464 52.8923 10.104C52.5323 9.744 52.0403 9.564 51.4163 9.564ZM72.1644 5.64C74.1324 5.64 75.8484 6.012 77.3124 6.756C78.7764 7.476 79.9164 8.532 80.7324 9.924C81.5484 11.316 81.9564 13.008 81.9564 15C81.9564 16.968 81.5484 18.66 80.7324 20.076C79.9164 21.468 78.7764 22.536 77.3124 23.28C75.8484 24 74.1324 24.36 72.1644 24.36C70.2444 24.36 68.5404 24 67.0524 23.28C65.5884 22.536 64.4364 21.468 63.5964 20.076C62.7804 18.66 62.3724 16.968 62.3724 15C62.3724 13.008 62.7804 11.316 63.5964 9.924C64.4364 8.532 65.5884 7.476 67.0524 6.756C68.5404 6.012 70.2444 5.64 72.1644 5.64ZM72.1644 10.644C71.6364 10.644 71.1804 10.776 70.7964 11.04C70.4364 11.304 70.1604 11.76 69.9684 12.408C69.7764 13.056 69.6804 13.92 69.6804 15C69.6804 16.08 69.7764 16.944 69.9684 17.592C70.1604 18.216 70.4364 18.672 70.7964 18.96C71.1804 19.224 71.6364 19.356 72.1644 19.356C72.7164 19.356 73.1724 19.224 73.5324 18.96C73.8924 18.672 74.1684 18.216 74.3604 17.592C74.5524 16.944 74.6484 16.08 74.6484 15C74.6484 13.92 74.5524 13.056 74.3604 12.408C74.1684 11.76 73.8924 11.304 73.5324 11.04C73.1724 10.776 72.7164 10.644 72.1644 10.644Z" fill="black"/>
</svg>
