<svg width="50" height="50" viewBox="0 0 50 50" fill="none" xmlns="http://www.w3.org/2000/svg">
<path d="M28.4912 30.0879C31.2314 30.0879 33.8594 28.9993 35.7971 27.0617C37.7347 25.1241 38.8232 22.4961 38.8232 19.7559C38.8232 17.0156 37.7347 14.3876 35.7971 12.45C33.8594 10.5124 31.2314 9.42383 28.4912 9.42383H13.2812V12.5488H17.1819V26.9629H13.2812V30.0879H17.1819V34.375H13.2812V37.5H17.1819V42.9688H20.3069V37.5H29.6875V34.375H20.3069V30.0879H28.4912ZM20.3069 12.5488H28.4912C29.4377 12.5488 30.3748 12.7352 31.2492 13.0974C32.1236 13.4596 32.9181 13.9905 33.5874 14.6597C34.2566 15.329 34.7875 16.1235 35.1496 16.9978C35.5118 17.8722 35.6982 18.8094 35.6982 19.7559C35.6982 20.7023 35.5118 21.6395 35.1496 22.5139C34.7875 23.3883 34.2566 24.1828 33.5874 24.852C32.9181 25.5212 32.1236 26.0521 31.2492 26.4143C30.3748 26.7765 29.4377 26.9629 28.4912 26.9629H20.3069V12.5488Z" fill="white"/>
</svg>
