<svg width="35" height="29" viewBox="0 0 35 29" fill="none" xmlns="http://www.w3.org/2000/svg">
<path d="M17.5 0.498779C8.22145 0.498779 0.699951 6.80357 0.699951 14.5811C0.699951 22.3587 8.22145 28.6635 17.5 28.6635C26.7785 28.6635 34.2999 22.3587 34.2999 14.5811C34.2999 6.80357 26.7785 0.498779 17.5 0.498779ZM23.961 16.3869C23.961 16.3869 25.4467 17.6162 25.8125 18.1868C25.823 18.1985 25.8282 18.2103 25.8317 18.2161C25.9804 18.4259 26.0155 18.5887 25.9419 18.7105C25.8195 18.9129 25.3995 19.0127 25.256 19.0215H22.631C22.4489 19.0215 22.0674 18.9819 21.6054 18.7149C21.2502 18.5066 20.9002 18.1648 20.559 17.8318C20.0497 17.336 19.6087 16.9077 19.1642 16.9077C19.1077 16.9076 19.0516 16.915 18.9979 16.9297C18.662 17.0206 18.2315 17.4225 18.2315 18.4934C18.2315 18.8278 17.9165 19.02 17.6942 19.02H16.492C16.0825 19.02 13.9492 18.8997 12.0592 17.2289C9.7457 15.1826 7.6632 11.0781 7.6457 11.04C7.51445 10.7745 7.7857 10.6322 8.08145 10.6322H10.7327C11.0862 10.6322 11.2017 10.8126 11.2822 10.9725C11.3767 11.1588 11.7232 11.8996 12.292 12.7328C13.2142 14.0912 13.7795 14.6427 14.2327 14.6427C14.3177 14.6419 14.4012 14.6238 14.476 14.5899C15.0675 14.3142 14.9572 12.5465 14.931 12.1798C14.931 12.1109 14.9292 11.3891 14.6264 11.0429C14.4094 10.7921 14.0402 10.6968 13.8162 10.6615C13.9069 10.5567 14.0263 10.4716 14.1644 10.4136C14.5704 10.2435 15.302 10.2185 16.0282 10.2185H16.4325C17.22 10.2273 17.423 10.2699 17.7082 10.33C18.2857 10.4459 18.298 10.7584 18.2472 11.8277C18.2315 12.1314 18.2157 12.4746 18.2157 12.8795C18.2157 12.9675 18.2105 13.0614 18.2105 13.1612C18.193 13.7054 18.172 14.323 18.6305 14.5767C18.6903 14.6082 18.7594 14.6249 18.83 14.6251C18.9892 14.6251 19.4687 14.6251 20.7672 12.7578C21.1677 12.1567 21.5157 11.5321 21.8085 10.8889C21.8347 10.8508 21.9117 10.7334 22.0027 10.6879C22.0699 10.6593 22.1443 10.6447 22.2197 10.6454H25.3364C25.6759 10.6454 25.9087 10.6879 25.9524 10.798C26.0294 10.9725 25.9384 11.505 24.5157 13.1201L23.8804 13.8227C22.5907 15.2398 22.5907 15.3117 23.961 16.3869Z" fill="#00B876"/>
</svg>
